
Description:

A journey to the world of Nightwish.This documentary reveals all the ups and downs of Nightwish´s history as
well as some of the most hilarious and embarrassing moments from their world tours.

The DVD-extras include music videos,an interview,live material and an extremly photo gallery.





**DVD**

1. "End of Innocence" Documentary

01. "How It All Began"
02. "Tavastia Club, Backstage"
03. "Bless The Child"
04. "Tero's Duties"
05. "Caverock"
06. "First Steps"
07. "Heavier Sound"
08. "First Gigs"
09. "Oceanborn"
10. "Sami"
11. "Finnish Midsummer Activities"
12. "First Tour"
13. "The Duties Of The Bass Player"
14. "Losing The Innocence"
15. "The Night Owl"
16. "South Korea"
17. "Unnecessary Footage..."
18. "Adventures In Russia"
19. "Wishmaster"
20. "Practical Jokes"
21. "Even More Unnecessary Footage..."
22. "Dead Boy's Poem / Slaying The Dreamer"
23. "South America"
24. "Century Child"
25. "Kitee By Night"
26. "What Makes Tuomas Tick?"
27. "No Balance"
28. "Slain Dreamer"
29. "Keeping The Innocence"
30. "The Innocent & The Credits

2. Live footage: July 4, 2003 in Norway

01. "Sleeping Sun"
02. "Wild Child"
03. "Beauty and the Beast"
04. "She is My Sin"
05. "Slaying the Dreamer"

3. Live footage: Summer Breeze Open Air 2002

01. "End of all Hope"
02. "Dead to the World"
03. "10th Man Down"
04. "Slaying the Dreamer"
05. "Over the Hills and Far Away"
06. "Sleeping Sun"

4. Music videos

01. "End of All Hope"
02. "Over the Hills and Far Away"

5. MTV Brazil Interview

6. Photo Gallery

01. Hidden outtake with Tarja singing acapella "Sleepwalker"

**MEDIAINFO**


General

Complete name : C:\VTS_01_0.VOB
Format : MPEG-PS
File size : 248 MiB
Duration : 2mn 42s
Overall bit rate : 12.8 Mbps

Video #224

ID : 224 (0xE0)
Format : MPEG Video
Format version : Version 2
Format profile : Main@Main
Format settings, BVOP : Yes
Format settings, Matrix : Default
Format settings, GOP : M=3, N=6
Duration : 2mn 42s
Bit rate mode : Constant
Bit rate : 12.3 Mbps
Nominal bit rate : 6 000 Kbps
Width : 720 pixels
Height : 576 pixels
Display aspect ratio : 16:9
Frame rate : 25.000 fps
Standard : PAL
Color space : YUV
Chroma subsampling : 4:2:0
Bit depth : 8 bits
Scan type : Interlaced
Scan order : Bottom Field First
Bits/(Pixel*Frame) : 1.191
Stream size : 239 MiB (97%)

Audio #128

ID : 128 (0x80)
Format : AC-3
Format/Info : Audio Coding 3
Mode extension : CM (complete main)
Duration : 2mn 42s
Bit rate mode : Constant
Bit rate : 192 Kbps
Channel(s) : 2 channels
Channel positions : Front: L R
Sampling rate : 48.0 KHz
Bit depth : 16 bits
Stream size : 3.72 MiB (2%)

Country: Finland
Genre: Symphonic-Gothic Metal
Cover: YES
Total running time: 200 min.
Subtitles: Eng.
Menu: Yes


Uploaded by Matesio
Enjoy & Seed into a coma !!
Thanks Motivates